<svg xmlns="http://www.w3.org/2000/svg" viewBox="0 0 1183.63 220.6"><defs><style>.cls-1{fill:#606060;}.cls-2{fill:#c0c8ce;}.cls-3{fill:#a0a0a0;}.cls-4{font-size:47px;font-family:Silkscreen-Expanded, Silkscreen Expanded;letter-spacing:-0.01em;}</style></defs><g id="Layer_2" data-name="Layer 2"><g id="Layer_1-2" data-name="Layer 1"><rect class="cls-1" x="19.74" width="1144.16" height="9.87" transform="translate(1183.63 9.87) rotate(-180)"/><rect class="cls-2" x="19.74" y="9.87" width="1144.16" height="9.87" transform="translate(1183.63 29.61) rotate(-180)"/><rect class="cls-2" x="79.24" y="132.65" width="1074.79" height="9.87" transform="translate(1233.27 275.16) rotate(-180)"/><rect class="cls-1" x="1112.81" y="80.69" width="131.78" height="9.87" transform="translate(1264.33 -1093.07) rotate(90)"/><rect class="cls-2" x="1117.31" y="66.32" width="103.04" height="9.87" transform="translate(1240.09 -1097.57) rotate(90)"/><rect class="cls-1" x="1163.9" y="151.51" width="9.87" height="9.87" transform="translate(1325.28 -1012.38) rotate(90)"/><rect class="cls-1" x="1163.9" y="9.87" width="9.87" height="9.87" transform="translate(1183.63 -1154.03) rotate(90)"/><rect class="cls-2" x="1154.03" y="19.74" width="9.87" height="9.87" transform="translate(1183.63 -1134.29) rotate(90)"/><rect class="cls-2" x="1154.03" y="122.78" width="9.87" height="9.87" transform="translate(1286.68 -1031.25) rotate(90)"/><rect class="cls-2" x="-41.8" y="71.4" width="113.2" height="9.87" transform="translate(91.14 61.53) rotate(90)"/><rect class="cls-2" x="19.73" y="19.74" width="9.87" height="9.87" transform="translate(49.34 0) rotate(90)"/><rect class="cls-2" x="19.73" y="123.07" width="9.87" height="9.87" transform="translate(152.67 103.33) rotate(90)"/><rect class="cls-2" x="19.73" y="132.94" width="9.87" height="9.87" transform="translate(162.54 113.2) rotate(90)"/><polygon class="cls-3" points="19.74 131.78 19.74 141.65 19.74 151.51 9.87 151.51 9.87 141.65 9.87 131.78 19.74 131.78"/><polygon class="cls-3" points="29.6 141.65 29.6 151.51 29.6 161.38 19.73 161.38 19.73 151.51 19.73 141.65 29.6 141.65"/><polygon class="cls-3" points="79.24 141.65 79.24 151.52 79.24 161.39 1163.9 161.39 1163.9 151.52 1163.9 141.65 79.24 141.65"/><polygon class="cls-3" points="69.37 151.51 69.37 161.38 69.37 171.25 79.24 171.25 79.24 161.38 79.24 151.51 69.37 151.51"/><polygon class="cls-3" points="1163.9 122.78 1163.9 137.15 1163.9 151.51 1173.77 151.51 1173.77 137.15 1173.77 122.78 1163.9 122.78"/><polygon class="cls-3" points="1154.03 132.65 1154.03 137.15 1154.03 141.65 1163.9 141.65 1163.9 137.15 1163.9 132.65 1154.03 132.65"/><polygon class="cls-3" points="59.5 162.06 59.5 171.93 59.5 181.8 69.37 181.8 69.37 171.93 69.37 162.06 59.5 162.06"/><polygon class="cls-3" points="49.63 171.93 49.63 181.8 49.63 191.67 59.5 191.67 59.5 181.8 59.5 171.93 49.63 171.93"/><polygon class="cls-3" points="39.62 181.12 39.62 190.99 39.62 200.86 49.63 200.86 49.63 190.99 49.63 181.12 39.62 181.12"/><polygon class="cls-3" points="29.6 190.99 29.6 200.86 29.6 210.73 39.96 210.73 39.96 200.86 39.96 190.99 29.6 190.99"/><rect class="cls-1" x="-60.95" y="80.69" width="131.78" height="9.87" transform="translate(-80.69 90.56) rotate(-90)"/><rect class="cls-1" x="-4.94" y="186.06" width="59.21" height="9.87" transform="translate(-166.32 215.66) rotate(-90)"/><rect class="cls-1" x="9.87" y="9.87" width="9.87" height="9.87" transform="translate(0 29.61) rotate(-90)"/><rect class="cls-1" x="9.87" y="151.51" width="9.87" height="9.87" transform="translate(-141.65 171.25) rotate(-90)"/><rect class="cls-1" x="69.37" y="171.25" width="9.87" height="9.87" transform="translate(-101.88 250.49) rotate(-90)"/><rect class="cls-1" x="59.5" y="181.12" width="9.87" height="9.87" transform="translate(-121.62 250.49) rotate(-90)"/><rect class="cls-1" x="49.63" y="190.99" width="9.87" height="9.87" transform="translate(-141.36 250.49) rotate(-90)"/><rect class="cls-1" x="39.77" y="200.86" width="9.87" height="9.87" transform="translate(-161.09 250.49) rotate(-90)"/><rect class="cls-1" x="29.57" y="210.4" width="9.87" height="10.52" transform="translate(-181.16 250.17) rotate(-90)"/><rect class="cls-1" x="79.25" y="161.38" width="1084.65" height="9.87" transform="translate(1243.14 332.64) rotate(-180)"/><text class="cls-4" transform="translate(141.56 71.5)">crafting clarity from noise<tspan x="8.39" y="45" xml:space="preserve">desigN   codE   experiments</tspan></text><rect x="631.12" y="98.28" width="8" height="8"/><rect x="400.03" y="98.28" width="8" height="8"/></g></g></svg>