<svg xmlns="http://www.w3.org/2000/svg" viewBox="0 0 1183.63 220.6"><defs><style>.cls-1{fill:#606060;}.cls-2{fill:#c0c8ce;}.cls-3{fill:#a0a0a0;}.cls-4{fill:#ededed;}</style></defs><g id="Layer_2" data-name="Layer 2"><g id="Layer_1-2" data-name="Layer 1"><rect class="cls-1" x="19.74" width="1144.16" height="9.87" transform="translate(1183.63 9.87) rotate(-180)"/><rect class="cls-2" x="19.73" y="9.87" width="1144.16" height="9.87"/><rect class="cls-2" x="79.24" y="132.65" width="1074.78" height="9.87"/><rect class="cls-1" x="1112.81" y="80.69" width="131.78" height="9.87" transform="translate(1264.33 -1093.07) rotate(90)"/><rect class="cls-2" x="1163.89" y="19.74" width="9.87" height="103.04"/><rect class="cls-1" x="1163.9" y="151.51" width="9.87" height="9.87" transform="translate(1325.28 -1012.38) rotate(90)"/><rect class="cls-1" x="1163.9" y="9.87" width="9.87" height="9.87" transform="translate(1183.63 -1154.03) rotate(90)"/><rect class="cls-2" x="1154.02" y="19.74" width="9.87" height="9.87"/><rect class="cls-2" x="1154.02" y="122.78" width="9.87" height="9.87"/><rect class="cls-2" x="9.86" y="19.74" width="9.87" height="113.2"/><rect class="cls-2" x="19.73" y="19.74" width="9.87" height="9.87"/><rect class="cls-2" x="19.73" y="123.07" width="9.87" height="9.87"/><rect class="cls-2" x="19.73" y="132.94" width="9.87" height="9.87"/><polygon class="cls-3" points="19.74 131.78 19.74 141.65 19.74 151.51 9.87 151.51 9.87 141.65 9.87 131.78 19.74 131.78"/><rect class="cls-3" x="19.73" y="141.65" width="9.87" height="19.74"/><rect class="cls-3" x="79.23" y="141.66" width="1084.66" height="19.73"/><rect class="cls-3" x="69.37" y="151.52" width="9.87" height="19.73"/><polygon class="cls-3" points="1163.9 122.78 1163.9 137.15 1163.9 151.51 1173.77 151.51 1173.77 137.15 1173.77 122.78 1163.9 122.78"/><polygon class="cls-3" points="1154.03 132.65 1154.03 137.15 1154.03 141.65 1163.9 141.65 1163.9 137.15 1163.9 132.65 1154.03 132.65"/><rect class="cls-3" x="59.5" y="162.06" width="9.87" height="19.74"/><rect class="cls-3" x="49.63" y="171.93" width="9.87" height="19.74"/><rect class="cls-3" x="39.61" y="181.12" width="10.02" height="19.74"/><rect class="cls-3" x="29.6" y="190.99" width="10.35" height="19.74"/><rect class="cls-1" x="-60.95" y="80.69" width="131.78" height="9.87" transform="translate(-80.69 90.56) rotate(-90)"/><polygon class="cls-4" points="1163.89 29.61 1163.89 122.78 1154.02 122.78 1154.02 132.65 79.24 132.65 79.24 141.66 79.23 141.66 79.23 151.52 69.37 151.52 69.37 162.06 59.5 162.06 59.5 171.93 49.63 171.93 49.63 181.12 39.61 181.12 39.61 190.99 29.6 190.99 29.6 123.07 19.73 123.07 19.73 29.61 29.6 29.61 29.6 19.74 1154.02 19.74 1154.02 29.61 1163.89 29.61"/><rect class="cls-1" x="19.73" y="161.39" width="9.87" height="59.21"/><rect class="cls-1" x="9.87" y="9.87" width="9.87" height="9.87" transform="translate(0 29.61) rotate(-90)"/><rect class="cls-1" x="9.87" y="151.51" width="9.87" height="9.87" transform="translate(-141.65 171.25) rotate(-90)"/><rect class="cls-1" x="69.37" y="171.25" width="9.87" height="9.87" transform="translate(-101.88 250.49) rotate(-90)"/><rect class="cls-1" x="59.5" y="181.12" width="9.87" height="9.87" transform="translate(-121.62 250.49) rotate(-90)"/><rect class="cls-1" x="49.63" y="190.99" width="9.87" height="9.87" transform="translate(-141.36 250.49) rotate(-90)"/><rect class="cls-1" x="39.77" y="200.86" width="9.87" height="9.87" transform="translate(-161.09 250.49) rotate(-90)"/><rect class="cls-1" x="29.57" y="210.4" width="9.87" height="10.52" transform="translate(-181.16 250.17) rotate(-90)"/><rect class="cls-1" x="79.25" y="161.38" width="1084.65" height="9.87" transform="translate(1243.14 332.64) rotate(-180)"/><path d="M152.75,65.9h-5.6V49.12h5.6Zm11.19-16.78H152.75v-5.6h11.19Zm0,22.38H152.75V65.9h11.19Zm5.6-16.79h-5.6V49.12h5.6Zm0,11.19h-5.6V60.31h5.6Z"/><path d="M185.85,71.5v-28h16.79v5.6H191.45v5.59h11.19v5.6H191.45V71.5ZM197,60.31h5.6V65.9H197Zm5.6-11.19h5.59v5.59h-5.59Zm0,16.78h5.59v5.6h-5.59Z"/><path d="M224.68,71.5V49.12h5.6v5.59h11.19V49.12h5.59V71.5h-5.59V60.31H230.28V71.5Zm5.6-28v5.6h11.19v-5.6Z"/><path d="M263.24,71.5v-28H280v5.6H268.84v5.59H280v5.6H268.84V71.5Z"/><path d="M301.94,71.5V49.12h-5.59v-5.6h16.78v5.6h-5.59V71.5Z"/><path d="M329.45,71.5v-28H335v28Z"/><path d="M351.36,71.5v-28H357v28ZM357,49.12h5.6v5.59H357Zm5.6,5.59h5.59v5.6h-5.59Zm5.59,5.6h5.6V65.9h-5.6Zm5.6,11.19v-28h5.59v28Z"/><path d="M401.24,65.9h-5.59V49.12h5.59ZM418,49.12H401.24v-5.6H418Zm-5.6,22.38H401.24V65.9h11.19Zm0-11.19h-5.59v-5.6H418V65.9h-5.6Z"/><path d="M467.45,65.9h-5.6V49.12h5.6Zm11.19-16.78H467.45v-5.6h11.19Zm0,22.38H467.45V65.9h11.19Zm5.59-16.79h-5.59V49.12h5.59Zm0,11.19h-5.59V60.31h5.59Z"/><path d="M506.14,65.9h11.19v5.6H500.55v-28h5.59Z"/><path d="M533.78,71.5V49.12h5.6v5.59h11.19V49.12h5.59V71.5h-5.59V60.31H539.38V71.5Zm5.6-28v5.6h11.19v-5.6Z"/><path d="M572.34,71.5v-28h16.79v5.6H577.94v5.59h11.19v5.6H577.94V71.5Zm11.2-11.19h5.59V65.9h-5.59Zm5.59-11.19h5.6v5.59h-5.6Zm0,16.78h5.6v5.6h-5.6Z"/><path d="M611,71.5v-28h5.6v28Z"/><path d="M638.55,71.5V49.12H633v-5.6h16.79v5.6h-5.6V71.5Z"/><path d="M666.05,43.52h5.6v5.6h-5.6Zm5.6,5.6h5.59v5.59h-5.59Zm5.59,22.38V54.71h5.6V71.5Zm5.6-22.38h5.59v5.59h-5.59Zm5.59-5.6H694v5.6h-5.6Z"/><path d="M737.85,71.5v-28h16.79v5.6H743.45v5.59h11.19v5.6H743.45V71.5Z"/><path d="M771,71.5v-28h16.79v5.6H776.55v5.59h11.19v5.6H776.55V71.5Zm11.19-11.19h5.6V65.9h-5.6Zm5.6-11.19h5.59v5.59h-5.59Zm0,16.78h5.59v5.6h-5.59Z"/><path d="M815.24,65.9h-5.59V49.12h5.59Zm11.19-16.78H815.24v-5.6h11.19Zm0,22.38H815.24V65.9h11.19Zm5.6-5.6h-5.6V49.12H832Z"/><path d="M848.34,71.5v-28h5.6v28Zm5.6-22.38h5.59v5.59h-5.59Zm5.59,5.59h5.6v5.6h-5.6Zm5.6-5.59h5.59v5.59h-5.59Zm5.59,22.38v-28h5.6v28Z"/><path d="M920.14,71.5v-28h5.6v28Zm5.6-22.38h5.59v5.59h-5.59Zm5.59,5.59h5.6v5.6h-5.6Zm5.6,5.6h5.59V65.9h-5.59Zm5.59,11.19v-28h5.6v28Z"/><path d="M970,65.9h-5.6V49.12H970Zm11.19-16.78H970v-5.6h11.19Zm0,22.38H970V65.9h11.19Zm5.59-5.6h-5.59V49.12h5.59Z"/><path d="M1003.13,71.5v-28h5.59v28Z"/><path d="M1025,49.12h5.6v5.59H1025Zm0,22.38V65.9h16.79v5.6Zm5.6-22.38v-5.6h16.78v5.6Zm0,11.19h11.19v-5.6h-11.19Zm11.19,0h5.59V65.9h-5.59Z"/><path d="M1080.52,49.12h-11.19v5.59h11.19v5.6h-11.19V65.9h11.19v5.6h-16.78v-28h16.78Z"/><path d="M155.55,116.5v-28h16.78v5.6H161.14V110.9h11.19v5.6Zm22.38-22.38V110.9h-5.6V94.12Z"/><path d="M211,94.12H199.84v5.59H211v5.6H199.84v5.59H211v5.6H194.24v-28H211Z"/><path d="M227.35,94.12h5.59v5.59h-5.59Zm0,22.38v-5.6h16.78v5.6Zm5.59-22.38v-5.6h16.79v5.6Zm0,11.19h11.19v-5.6H232.94Zm11.19,0h5.6v5.59h-5.6Z"/><path d="M266,116.5v-28h5.6v28Z"/><path d="M293.55,110.9H288V94.12h5.6Zm16.78-16.78H293.55v-5.6h16.78Zm-5.59,22.38H293.55v-5.6h11.19Zm0-11.19h-5.6v-5.6h11.19V110.9h-5.59Z"/><path d="M326.65,116.5v-28h5.59v28Zm5.59-22.38h5.6v5.59h-5.6Zm5.6,5.59h5.59v5.6h-5.59Zm5.59,5.6H349v5.59h-5.6ZM349,116.5v-28h5.59v28Z"/><path d="M459.05,110.9h-5.59V94.12h5.59Zm11.19-16.78H459.05v-5.6h11.19Zm0,22.38H459.05v-5.6h11.19Zm5.6-16.79h-5.6V94.12h5.6Zm0,11.19h-5.6v-5.59h5.6Z"/><path d="M497.75,110.9h-5.6V94.12h5.6Zm11.19-16.78H497.75v-5.6h11.19Zm0,22.38H497.75v-5.6h11.19Zm5.59-5.6h-5.59V94.12h5.59Z"/><path d="M530.85,116.5v-28h16.79v5.6H536.45V110.9h11.19v5.6Zm22.38-22.38V110.9h-5.59V94.12Z"/><path d="M586.33,94.12H575.14v5.59h11.19v5.6H575.14v5.59h11.19v5.6H569.55v-28h16.78Z"/><path d="M702,94.12H690.76v5.59H702v5.6H690.76v5.59H702v5.6H685.17v-28H702Z"/><path d="M718.27,88.52h5.59v5.6h-5.59Zm0,22.38h5.59v5.6h-5.59Zm5.59-16.78h5.6v5.59h-5.6Zm0,11.19h5.6v5.59h-5.6Zm5.6-5.6h5.59v5.6h-5.59Zm5.59-5.59h5.6v5.59h-5.6Zm0,11.19h5.6v5.59h-5.6Zm5.6-16.79h5.59v5.6h-5.59Zm0,22.38h5.59v5.6h-5.59Z"/><path d="M762.56,116.5v-28h16.78v5.6H768.15v5.59h11.19v5.6H768.15V116.5Zm16.78-22.38h5.6v5.59h-5.6Z"/><path d="M818,94.12H806.85v5.59H818v5.6H806.85v5.59H818v5.6H801.25v-28H818Z"/><path d="M834.35,116.5v-28h16.79v5.6H840v5.59h11.19v5.6H840V116.5Zm11.2-11.19h5.59v5.59h-5.59Zm5.59-11.19h5.6v5.59h-5.6Zm0,16.78h5.6v5.6h-5.6Z"/><path d="M873.05,116.5v-28h5.6v28Z"/><path d="M895,116.5v-28h5.6v28Zm5.6-22.38h5.59v5.59h-5.59Zm5.59,5.59h5.6v5.6h-5.6Zm5.6-5.59h5.59v5.59h-5.59Zm5.59,22.38v-28h5.6v28Z"/><path d="M956,94.12H944.85v5.59H956v5.6H944.85v5.59H956v5.6H939.25v-28H956Z"/><path d="M972.35,116.5v-28H978v28ZM978,94.12h5.6v5.59H978Zm5.6,5.59h5.59v5.6h-5.59Zm5.59,5.6h5.6v5.59h-5.6Zm5.6,11.19v-28h5.59v28Z"/><path d="M1022.24,116.5V94.12h-5.59v-5.6h16.78v5.6h-5.59V116.5Z"/><path d="M1049.75,94.12h5.59v5.59h-5.59Zm0,22.38v-5.6h16.78v5.6Zm5.59-22.38v-5.6h16.79v5.6Zm0,11.19h11.19v-5.6h-11.19Zm11.19,0h5.6v5.59h-5.6Z"/><rect x="631.12" y="98.28" width="8" height="8"/><rect x="400.03" y="98.28" width="8" height="8"/></g></g></svg>