<svg xmlns="http://www.w3.org/2000/svg" viewBox="0 0 1081.83 191.9"><defs><style>.cls-1{fill:#231f20;}</style></defs><g id="Layer_2" data-name="Layer 2"><g id="Layer_1-2" data-name="Layer 1"><rect class="cls-1" x="489.42" y="85.67" width="102.99" height="20.55"/><rect class="cls-1" x="489.42" y="85.67" width="102.99" height="20.55" transform="translate(636.86 -444.97) rotate(90)"/><rect class="cls-1" y="85.67" width="41.14" height="20.55"/><rect class="cls-1" x="62.54" y="85.67" width="41.14" height="20.55"/><rect class="cls-1" x="125.09" y="85.67" width="299.73" height="20.55"/><rect class="cls-1" x="446.14" y="85.67" width="20.55" height="20.55"/><rect class="cls-1" x="1040.69" y="85.67" width="41.14" height="20.55" transform="translate(2122.52 191.9) rotate(180)"/><rect class="cls-1" x="978.14" y="85.67" width="41.14" height="20.55" transform="translate(1997.43 191.9) rotate(180)"/><rect class="cls-1" x="657.01" y="85.67" width="299.73" height="20.55" transform="translate(1613.75 191.9) rotate(180)"/><rect class="cls-1" x="615.14" y="85.67" width="20.55" height="20.55" transform="translate(1250.83 191.9) rotate(180)"/><rect class="cls-1" x="530.64" y="171.35" width="20.55" height="20.55" transform="translate(1081.83 363.25) rotate(180)"/><rect class="cls-1" x="530.64" width="20.55" height="20.55" transform="translate(1081.83 20.55) rotate(180)"/><rect class="cls-1" x="510.35" y="65.39" width="61.12" height="61.12" transform="translate(1081.83 191.9) rotate(180)"/></g></g></svg>