<svg xmlns="http://www.w3.org/2000/svg" xmlns:xlink="http://www.w3.org/1999/xlink" viewBox="0 0 1217 85.23"><defs><style>.cls-1,.cls-6{fill:none;}.cls-2{clip-path:url(#clip-path);}.cls-3{fill:#fff;}.cls-4{clip-path:url(#clip-path-2);}.cls-5{clip-path:url(#clip-path-3);}.cls-6{stroke:#fff;}</style><clipPath id="clip-path" transform="translate(0 -0.06)"><rect class="cls-1" x="380.37" y="49.48" width="14.51" height="34.92"/></clipPath><clipPath id="clip-path-2" transform="translate(0 -0.06)"><rect class="cls-1" x="377.43" y="75.68" width="5.81" height="8.8"/></clipPath><clipPath id="clip-path-3" transform="translate(0 -0.06)"><rect class="cls-1" x="339.81" width="63.2" height="84.27"/></clipPath></defs><g id="Layer_2" data-name="Layer 2"><g id="Layer_1-2" data-name="Layer 1"><g class="cls-2"><path class="cls-3" d="M383.72,75.66a.69.69,0,0,1,.3.91,7.31,7.31,0,0,0-.42,1.14,54.91,54.91,0,0,1,5.15-2.57c-.15-1.6-.62-6.46-.62-7.62a5.21,5.21,0,0,1,.75-2.32,4.53,4.53,0,0,0,.6-1.73,16.32,16.32,0,0,0-.31-2c-.37-2.1-.84-4.71-.33-6.24A10.07,10.07,0,0,1,391,51.56a.66.66,0,0,1,1,0,.68.68,0,0,1,0,.95,8.88,8.88,0,0,0-1.86,3.1c-.4,1.19.06,3.72.39,5.57a16.45,16.45,0,0,1,.33,2.29,5.38,5.38,0,0,1-.75,2.33,4.28,4.28,0,0,0-.6,1.72c0,1,.42,5.48.6,7.27a6,6,0,0,1,2.29.16.68.68,0,0,1-.4,1.29,4.45,4.45,0,0,0-2.28,0,51.42,51.42,0,0,0-6.26,3.11c.11,1.44.64,4.16.65,4.19a.68.68,0,0,1-.53.79.32.32,0,0,1-.13,0,.68.68,0,0,1-.67-.55,39.36,39.36,0,0,1-.68-4.84,7.48,7.48,0,0,1,.75-3A.68.68,0,0,1,383.72,75.66Z" transform="translate(0 -0.06)"/></g><g class="cls-4"><path class="cls-3" d="M380,76.86a.67.67,0,1,1,1.31.32l-.45,1.88a8.44,8.44,0,0,0-.15,2.85l.22,1.76a.69.69,0,0,1-.59.75h-.08a.66.66,0,0,1-.67-.59l-.22-1.76a10.24,10.24,0,0,1,.18-3.33Z" transform="translate(0 -0.06)"/></g><g class="cls-5"><path class="cls-3" d="M344.5,53.24h6.07c.36-1.66,1.6-6.79,3.37-9.16s6.39-4.46,8.26-5.27c-2-3-5-9.17-5-13.84a10.79,10.79,0,0,1,2-5.57,13.58,13.58,0,0,1,.76-6.8C361.32,9.07,368.94.06,374,.06s13.39,7.76,15.44,13.23a9.42,9.42,0,0,1,.11,7,19.81,19.81,0,0,1,2,7.39c0,2.8-3.68,8.92-5,11.06a17.34,17.34,0,0,1,8.25,6c3.4,4.76,8.26,29.18,7.52,32.84S398.12,84,398,84.06a.66.66,0,0,1-.42.15A.7.7,0,0,1,397,84a.69.69,0,0,1,.1-.95s3.19-2.59,3.8-5.66c.67-3.31-4.06-27.27-7.29-31.79A16.32,16.32,0,0,0,386.07,40a10.85,10.85,0,0,1-1.42,4.86,8.3,8.3,0,0,1-4.43,3l-.16,0a.68.68,0,0,1-.17-1.33,7,7,0,0,0,3.65-2.41,8.06,8.06,0,0,0,1-2.89,39.94,39.94,0,0,1-3.41,3.11.64.64,0,0,1-.42.15.68.68,0,0,1-.42-1.2,27.75,27.75,0,0,0,4.57-4.56c1.83-2.75,5.27-8.83,5.27-11.06,0-5.13-5.22-13-5.27-13.1a.66.66,0,0,1,.19-.93.68.68,0,0,1,.93.18,51,51,0,0,1,2.68,4.65,9,9,0,0,0-.5-4.71c-2-5.43-10-12.35-14.19-12.35S362.46,9.83,361.16,13.1a11.75,11.75,0,0,0-.78,4.6,27.68,27.68,0,0,1,3.07-3.33.68.68,0,0,1,.95.05.66.66,0,0,1-.06.95c0,.05-5.82,5.24-5.82,9.6s3.1,10.87,5.25,13.73,6.71,7.28,8.42,7.84a3.6,3.6,0,0,0,1.47.14c-.09-.17-.17-.35-.27-.54a5.36,5.36,0,0,1-.74-2.32,12.94,12.94,0,0,1,.56-3.09c-2.2-1.51-12-8.55-12-13.75,0-9,8.05-11.44,12.8-11.44a15.54,15.54,0,0,1,7.93,2.22A10.34,10.34,0,0,1,386.79,27c0,5.4-10.59,12.78-12.22,13.89a12,12,0,0,0-.57,3,4.24,4.24,0,0,0,.6,1.71c.14.3.29.59.41.89a13.38,13.38,0,0,0,1.39-.51.65.65,0,0,1,.89.3.66.66,0,0,1-.29.9,10.43,10.43,0,0,1-1.67.62s0,.08,0,.13a44.43,44.43,0,0,1-.58,4.86,9.22,9.22,0,0,0-.09,1.17V83.54a.68.68,0,0,1-.67.67.69.69,0,0,1-.68-.67V77a4.12,4.12,0,0,1-2.81,1.11H366l-.33,1.17a2.58,2.58,0,0,1-2.5,1.93,3.4,3.4,0,0,1-.45,0l-2-.33-.2.21a2.94,2.94,0,0,1-2.06.85,2.86,2.86,0,0,1-.7-.09l-1.2-.29-.09,0v1.93a.68.68,0,0,1-1.35,0V82a2.41,2.41,0,0,1-.65-.08l-1.86-.49a3.74,3.74,0,0,1-2.58-.32l-5.87-2.93A4.17,4.17,0,0,1,340.34,74V57.41A4.17,4.17,0,0,1,344.5,53.24ZM385.44,27a9,9,0,0,0-4.23-8.09,14.16,14.16,0,0,0-7.21-2h0c-4.25,0-11.44,2.12-11.44,10.09,0,4,7.93,10.27,11.44,12.66C377.51,37.25,385.44,31,385.44,27ZM373.24,48a4.66,4.66,0,0,1-1.48-.22c-1.79-.6-5-3.67-7.3-6.19a11.93,11.93,0,0,0,2.6,5.07A7.85,7.85,0,0,0,372,49.21a.67.67,0,1,1,0,1.34,9,9,0,0,1-5.86-2.9c-2.17-2.17-3.09-5.9-3.41-7.59-1.79.78-6.19,2.84-7.69,4.84s-2.64,6.51-3.06,8.34h5l-1.06-3.15a.68.68,0,0,1,.43-.85.67.67,0,0,1,.85.42l1.19,3.58h12.19a4.11,4.11,0,0,1,2.81,1.1v-.45a7.93,7.93,0,0,1,.12-1.37c.16-1,.52-3.46.55-4.53A4.73,4.73,0,0,1,373.24,48ZM363,79.89a1.27,1.27,0,0,0,1.44-.92l1.18-4.35a.71.71,0,0,0-.07-.55.7.7,0,0,0-1.28.19l-.75,3a4.48,4.48,0,0,1-1.24,2.17l-.3.31Zm-3.35.26,1.69-1.69a3.43,3.43,0,0,0,.88-1.55l.74-3a.71.71,0,0,0-.54-.87.7.7,0,0,0-.84.51l-.75,3a4.68,4.68,0,0,1-1.23,2.17l-1.74,1.74.32.08A1.54,1.54,0,0,0,359.6,80.15Zm-4.75.43a1.42,1.42,0,0,0,1.32-.36l2.42-2.43a3.28,3.28,0,0,0,.89-1.55l.74-3a.69.69,0,0,0-.51-.84l-.13,0a.71.71,0,0,0-.83.46l-.6,1.78-.61,1.84a6.2,6.2,0,0,1-1.48,2.41l-1.48,1.47a1.12,1.12,0,0,1-.16.13Zm-4.18-.71a2.57,2.57,0,0,0,3-.48l1.47-1.47A5,5,0,0,0,356.27,76l.26-.78h0l.23-.69.49-1.46a1.11,1.11,0,0,0-.09-.89,1.09,1.09,0,0,0-.72-.51l-.21,0a1.07,1.07,0,0,0-1,.68l-1.56,3.9a3,3,0,0,1-2.81,1.9h-3.64Zm-9-5.88a2.81,2.81,0,0,0,2.82,2.81h6.36a1.65,1.65,0,0,0,1.56-1l1.56-3.9a2.4,2.4,0,0,1,2.72-1.47,2.32,2.32,0,0,1,1.53,1,2,2,0,0,1,1.68-.33l.12,0a2.12,2.12,0,0,1,1.21.86,2.16,2.16,0,0,1,1.49-.18,2.08,2.08,0,0,1,1.21.85,2,2,0,0,1,1.46-.19,2.13,2.13,0,0,1,1.27,1,2.08,2.08,0,0,1,.2,1.58l-.5,1.83h4.14A2.81,2.81,0,0,0,373.32,74V57.41a2.81,2.81,0,0,0-2.81-2.82h-26a2.81,2.81,0,0,0-2.81,2.82V74Z" transform="translate(0 -0.06)"/></g><line class="cls-6" y1="84.73" x2="1217" y2="84.73"/></g></g></svg>